<mxfile host="app.diagrams.net" agent="Mozilla/5.0 (Macintosh; Intel Mac OS X 10.15; rv:129.0) Gecko/20100101 Firefox/129.0" version="24.7.8">
  <diagram name="Page-1" id="UhGJeezDJqW4aOpSUhS9">
    <mxGraphModel dx="1685" dy="867" grid="1" gridSize="10" guides="1" tooltips="1" connect="1" arrows="1" fold="1" page="1" pageScale="1" pageWidth="413" pageHeight="291" math="0" shadow="0">
      <root>
        <mxCell id="0" />
        <mxCell id="1" parent="0" />
        <mxCell id="EcFgb9CEFjlDsxJ9yPgB-7" value="" style="shape=parallelogram;perimeter=parallelogramPerimeter;whiteSpace=wrap;html=1;fixedSize=1;rotation=-210;fillColor=#FFC2E7;dashed=1;strokeColor=none;size=81.56000000000017;" vertex="1" parent="1">
          <mxGeometry x="601.88" y="295.29" width="448.12" height="136.35" as="geometry" />
        </mxCell>
        <mxCell id="ngCEQZGh5tzwZteVi0dT-25" value="" style="line;strokeWidth=12;html=1;fillColor=none;fontSize=28;fontColor=#004D99;strokeColor=#004D99;fontFamily=Alegreya Sans;" parent="1" vertex="1">
          <mxGeometry x="110" y="405" width="690" height="10" as="geometry" />
        </mxCell>
        <mxCell id="ngCEQZGh5tzwZteVi0dT-30" value="" style="ellipse;whiteSpace=wrap;html=1;fillColor=#76608a;fontSize=28;fontColor=#ffffff;strokeWidth=5;strokeColor=#432D57;fontFamily=Alegreya Sans;aspect=fixed;" parent="1" vertex="1">
          <mxGeometry x="190" y="395" width="30" height="30" as="geometry" />
        </mxCell>
        <mxCell id="ngCEQZGh5tzwZteVi0dT-31" value="" style="ellipse;whiteSpace=wrap;html=1;fillColor=#76608a;fontSize=28;fontColor=#ffffff;strokeWidth=5;strokeColor=#432D57;fontFamily=Alegreya Sans;aspect=fixed;" parent="1" vertex="1">
          <mxGeometry x="350" y="395" width="30" height="30" as="geometry" />
        </mxCell>
        <mxCell id="ngCEQZGh5tzwZteVi0dT-32" value="" style="ellipse;whiteSpace=wrap;html=1;fillColor=#76608a;fontSize=28;fontColor=#ffffff;strokeWidth=5;strokeColor=#432D57;fontFamily=Alegreya Sans;aspect=fixed;" parent="1" vertex="1">
          <mxGeometry x="510" y="395" width="30" height="30" as="geometry" />
        </mxCell>
        <mxCell id="ngCEQZGh5tzwZteVi0dT-33" value="" style="ellipse;whiteSpace=wrap;html=1;fillColor=#FFFF33;fontSize=28;strokeWidth=5;strokeColor=#36393d;fontFamily=Alegreya Sans;gradientColor=#F7E00F;gradientDirection=radial;aspect=fixed;" parent="1" vertex="1">
          <mxGeometry x="680" y="395" width="30" height="30" as="geometry" />
        </mxCell>
        <mxCell id="ngCEQZGh5tzwZteVi0dT-50" value="&lt;font style=&quot;font-size: 22px;&quot;&gt;&lt;br&gt;&lt;font style=&quot;font-size: 22px;&quot;&gt;&lt;br&gt;&lt;br&gt;&lt;br&gt;&lt;br&gt;&lt;br&gt;&lt;br&gt;&lt;br&gt;&lt;br&gt;&lt;br&gt;&lt;br&gt;&lt;br&gt;&lt;br&gt;&lt;br&gt;&lt;br&gt;&lt;br&gt;&lt;br&gt;&lt;br&gt;&lt;br&gt;&lt;/font&gt;&lt;/font&gt;&lt;p style=&quot;font-size: 22px;&quot; class=&quot;MsoNormal&quot;&gt;&lt;font style=&quot;font-size: 22px;&quot;&gt;&lt;b&gt;&lt;span style=&quot;font-family: Parisine;&quot;&gt;Corpus-Charcot &lt;/span&gt;&lt;/b&gt;&lt;/font&gt;&lt;b&gt;– &lt;/b&gt;&lt;font style=&quot;font-size: 22px;&quot;&gt;&lt;b&gt;&lt;span style=&quot;font-family: Parisine;&quot;&gt;Explorations&lt;br&gt;&lt;/span&gt;&lt;/b&gt;&lt;/font&gt;&lt;/p&gt;&lt;font style=&quot;font-size: 22px;&quot;&gt;&lt;br&gt;&lt;br&gt;&lt;br&gt;&lt;br&gt;&lt;/font&gt;&lt;div style=&quot;font-size: 22px;&quot;&gt;&lt;font style=&quot;font-size: 22px;&quot;&gt;&lt;br&gt;&lt;/font&gt;&lt;/div&gt;" style="text;html=1;align=center;verticalAlign=middle;whiteSpace=wrap;rounded=0;rotation=-30;fontColor=#004D99;" parent="1" vertex="1">
          <mxGeometry x="80" y="130.43" width="328.37" height="30" as="geometry" />
        </mxCell>
        <mxCell id="ngCEQZGh5tzwZteVi0dT-51" value="&lt;font style=&quot;font-size: 22px;&quot;&gt;&lt;br&gt;&lt;font style=&quot;font-size: 22px;&quot;&gt;&lt;br&gt;&lt;br&gt;&lt;br&gt;&lt;br&gt;&lt;br&gt;&lt;br&gt;&lt;br&gt;&lt;br&gt;&lt;br&gt;&lt;br&gt;&lt;br&gt;&lt;br&gt;&lt;br&gt;&lt;br&gt;&lt;br&gt;&lt;br&gt;&lt;br&gt;&lt;br&gt;&lt;/font&gt;&lt;/font&gt;&lt;p style=&quot;font-size: 22px;&quot; class=&quot;MsoNormal&quot;&gt;&lt;font style=&quot;font-size: 22px;&quot;&gt;&lt;b&gt;&lt;span style=&quot;font-family: Parisine;&quot;&gt;Approche-Supervisée&lt;br&gt;&lt;/span&gt;&lt;/b&gt;&lt;/font&gt;&lt;/p&gt;&lt;font style=&quot;font-size: 22px;&quot;&gt;&lt;br&gt;&lt;br&gt;&lt;br&gt;&lt;br&gt;&lt;/font&gt;&lt;div style=&quot;font-size: 22px;&quot;&gt;&lt;font style=&quot;font-size: 22px;&quot;&gt;&lt;br&gt;&lt;/font&gt;&lt;/div&gt;" style="text;html=1;align=center;verticalAlign=middle;whiteSpace=wrap;rounded=0;rotation=-30;fontColor=#004D99;" parent="1" vertex="1">
          <mxGeometry x="255" y="150" width="220" height="30" as="geometry" />
        </mxCell>
        <mxCell id="ngCEQZGh5tzwZteVi0dT-52" value="&lt;font style=&quot;font-size: 22px;&quot;&gt;&lt;br&gt;&lt;font style=&quot;font-size: 22px;&quot;&gt;&lt;br&gt;&lt;br&gt;&lt;br&gt;&lt;br&gt;&lt;br&gt;&lt;br&gt;&lt;br&gt;&lt;br&gt;&lt;br&gt;&lt;br&gt;&lt;br&gt;&lt;br&gt;&lt;br&gt;&lt;br&gt;&lt;br&gt;&lt;br&gt;&lt;br&gt;&lt;br&gt;&lt;/font&gt;&lt;/font&gt;&lt;p style=&quot;font-size: 22px;&quot; class=&quot;MsoNormal&quot;&gt;&lt;font style=&quot;font-size: 22px;&quot;&gt;&lt;b&gt;&lt;span style=&quot;font-family: Parisine;&quot;&gt;Approche-non-Supervisée&lt;br&gt;&lt;/span&gt;&lt;/b&gt;&lt;/font&gt;&lt;/p&gt;&lt;font style=&quot;font-size: 22px;&quot;&gt;&lt;br&gt;&lt;br&gt;&lt;br&gt;&lt;br&gt;&lt;/font&gt;" style="text;html=1;align=center;verticalAlign=middle;whiteSpace=wrap;rounded=0;rotation=-30;fontColor=#004D99;" parent="1" vertex="1">
          <mxGeometry x="399.68" y="130" width="267.82" height="30" as="geometry" />
        </mxCell>
        <mxCell id="ngCEQZGh5tzwZteVi0dT-53" value="&lt;b&gt;&lt;font style=&quot;font-size: 22px;&quot;&gt;&lt;br&gt;&lt;font style=&quot;font-size: 22px;&quot;&gt;&lt;br&gt;&lt;br&gt;&lt;br&gt;&lt;br&gt;&lt;br&gt;&lt;br&gt;&lt;br&gt;&lt;br&gt;&lt;br&gt;&lt;br&gt;&lt;br&gt;&lt;br&gt;&lt;br&gt;&lt;br&gt;&lt;br&gt;&lt;br&gt;&lt;br&gt;&lt;br&gt;&lt;/font&gt;&lt;/font&gt;&lt;/b&gt;&lt;p style=&quot;font-size: 22px;&quot; class=&quot;MsoNormal&quot;&gt;&lt;b&gt;&lt;font style=&quot;font-size: 22px;&quot;&gt;&lt;span style=&quot;font-family: Parisine;&quot;&gt;Analyse-Sémantique&lt;/span&gt;&lt;/font&gt; – &lt;font style=&quot;font-size: 22px;&quot;&gt;&lt;span style=&quot;font-family: Parisine;&quot;&gt;Rédaction&lt;br&gt;&lt;/span&gt;&lt;/font&gt;&lt;/b&gt;&lt;/p&gt;&lt;b&gt;&lt;font style=&quot;font-size: 22px;&quot;&gt;&lt;br&gt;&lt;br&gt;&lt;br&gt;&lt;br&gt;&lt;/font&gt;&lt;/b&gt;" style="text;html=1;align=center;verticalAlign=middle;whiteSpace=wrap;rounded=0;rotation=-30;fontColor=#004D99;" parent="1" vertex="1">
          <mxGeometry x="560" y="110" width="349.65" height="30" as="geometry" />
        </mxCell>
        <mxCell id="ngCEQZGh5tzwZteVi0dT-55" value="&lt;br&gt;&lt;br&gt;&lt;br&gt;&lt;br&gt;&lt;br&gt;&lt;br&gt;&lt;br&gt;&lt;br&gt;&lt;br&gt;&lt;br&gt;&lt;br&gt;&lt;br&gt;&lt;br&gt;&lt;div&gt;&lt;br/&gt;&lt;/div&gt;" style="text;html=1;align=center;verticalAlign=middle;whiteSpace=wrap;rounded=0;" parent="1" vertex="1">
          <mxGeometry x="170" y="365" width="80" height="30" as="geometry" />
        </mxCell>
        <mxCell id="ngCEQZGh5tzwZteVi0dT-63" value="&lt;font color=&quot;#004d99&quot; style=&quot;font-size: 16px;&quot;&gt;&lt;br style=&quot;font-size: 16px;&quot;&gt;&lt;font style=&quot;font-size: 16px;&quot;&gt;&lt;br style=&quot;font-size: 16px;&quot;&gt;&lt;br style=&quot;font-size: 16px;&quot;&gt;&lt;br style=&quot;font-size: 16px;&quot;&gt;&lt;br style=&quot;font-size: 16px;&quot;&gt;&lt;br style=&quot;font-size: 16px;&quot;&gt;&lt;br style=&quot;font-size: 16px;&quot;&gt;&lt;br style=&quot;font-size: 16px;&quot;&gt;&lt;br style=&quot;font-size: 16px;&quot;&gt;&lt;br style=&quot;font-size: 16px;&quot;&gt;&lt;br style=&quot;font-size: 16px;&quot;&gt;&lt;br style=&quot;font-size: 16px;&quot;&gt;&lt;br style=&quot;font-size: 16px;&quot;&gt;&lt;br style=&quot;font-size: 16px;&quot;&gt;&lt;br style=&quot;font-size: 16px;&quot;&gt;&lt;br style=&quot;font-size: 16px;&quot;&gt;&lt;br style=&quot;font-size: 16px;&quot;&gt;&lt;br style=&quot;font-size: 16px;&quot;&gt;&lt;br style=&quot;font-size: 16px;&quot;&gt;&lt;/font&gt;&lt;/font&gt;&lt;p class=&quot;MsoNormal&quot; style=&quot;font-size: 16px;&quot;&gt;&lt;font color=&quot;#004d99&quot; style=&quot;font-size: 16px;&quot;&gt;&lt;b style=&quot;font-size: 16px;&quot;&gt;&lt;span style=&quot;font-family: Parisine; font-size: 16px;&quot;&gt;&lt;br style=&quot;font-size: 16px;&quot;&gt;&lt;/span&gt;&lt;/b&gt;&lt;/font&gt;&lt;/p&gt;&lt;font color=&quot;#004d99&quot; style=&quot;font-size: 16px;&quot;&gt;&lt;br style=&quot;font-size: 16px;&quot;&gt;&lt;br style=&quot;font-size: 16px;&quot;&gt;&lt;br style=&quot;font-size: 16px;&quot;&gt;&lt;br style=&quot;font-size: 16px;&quot;&gt;&lt;/font&gt;&lt;div style=&quot;font-size: 16px;&quot;&gt;&lt;font color=&quot;#004d99&quot; style=&quot;font-size: 16px;&quot;&gt;&lt;br style=&quot;font-size: 16px;&quot;&gt;&lt;/font&gt;&lt;/div&gt;" style="text;whiteSpace=wrap;html=1;verticalAlign=middle;fontSize=16;strokeWidth=1;" parent="1" vertex="1">
          <mxGeometry x="165" y="375" width="80" height="40" as="geometry" />
        </mxCell>
        <mxCell id="ngCEQZGh5tzwZteVi0dT-80" value="" style="edgeStyle=orthogonalEdgeStyle;rounded=0;orthogonalLoop=1;jettySize=auto;html=1;endArrow=none;endFill=0;curved=0;strokeWidth=5;targetPerimeterSpacing=4;" parent="1" edge="1">
          <mxGeometry relative="1" as="geometry">
            <mxPoint x="694.7356097560978" y="460" as="sourcePoint" />
            <mxPoint x="694.76" y="429.0000000000002" as="targetPoint" />
          </mxGeometry>
        </mxCell>
        <mxCell id="ngCEQZGh5tzwZteVi0dT-84" value="&lt;br&gt;&lt;br&gt;&lt;br&gt;&lt;br&gt;&lt;br&gt;&lt;br&gt;&lt;br&gt;&lt;br&gt;&lt;br&gt;&lt;br&gt;&lt;br&gt;&lt;br&gt;&lt;br&gt;&lt;br&gt;&lt;br&gt;&lt;br&gt;&lt;br&gt;&lt;b&gt;&lt;span style=&quot;font-size:16.0pt;font-family:Parisine;&lt;br/&gt;mso-fareast-font-family:Aptos;mso-fareast-theme-font:minor-latin;mso-bidi-font-family:&lt;br/&gt;&amp;quot;Times New Roman&amp;quot;;mso-bidi-theme-font:minor-bidi;mso-ansi-language:FR-CH;&lt;br/&gt;mso-fareast-language:EN-US;mso-bidi-language:AR-SA&quot;&gt;2024&lt;/span&gt;&lt;/b&gt;&lt;br&gt;&lt;br&gt;&lt;div&gt;&lt;br/&gt;&lt;/div&gt;" style="rounded=1;whiteSpace=wrap;html=1;spacingBottom=217;fillColor=#e51400;fontColor=#ffffff;strokeColor=none;imageAlign=left;resizeWidth=0;resizeHeight=0;movable=1;allowArrows=1;connectable=1;" parent="1" vertex="1">
          <mxGeometry x="667.5" y="462" width="55" height="40" as="geometry" />
        </mxCell>
        <mxCell id="ngCEQZGh5tzwZteVi0dT-85" value="" style="edgeStyle=orthogonalEdgeStyle;rounded=0;orthogonalLoop=1;jettySize=auto;html=1;endArrow=none;endFill=0;curved=0;strokeWidth=5;targetPerimeterSpacing=4;" parent="1" edge="1">
          <mxGeometry relative="1" as="geometry">
            <mxPoint x="524.7356097560978" y="460" as="sourcePoint" />
            <mxPoint x="524.76" y="429.0000000000002" as="targetPoint" />
          </mxGeometry>
        </mxCell>
        <mxCell id="ngCEQZGh5tzwZteVi0dT-86" value="&lt;br&gt;&lt;br&gt;&lt;br&gt;&lt;br&gt;&lt;br&gt;&lt;br&gt;&lt;br&gt;&lt;br&gt;&lt;br&gt;&lt;br&gt;&lt;br&gt;&lt;br&gt;&lt;br&gt;&lt;br&gt;&lt;br&gt;&lt;br&gt;&lt;br&gt;&lt;b&gt;&lt;span style=&quot;font-size:16.0pt;font-family:Parisine;&lt;br/&gt;mso-fareast-font-family:Aptos;mso-fareast-theme-font:minor-latin;mso-bidi-font-family:&lt;br/&gt;&amp;quot;Times New Roman&amp;quot;;mso-bidi-theme-font:minor-bidi;mso-ansi-language:FR-CH;&lt;br/&gt;mso-fareast-language:EN-US;mso-bidi-language:AR-SA&quot;&gt;2023&lt;/span&gt;&lt;/b&gt;&lt;br&gt;&lt;div&gt;&lt;br/&gt;&lt;/div&gt;" style="rounded=1;whiteSpace=wrap;html=1;spacingBottom=230;fillColor=#008a00;fontColor=#ffffff;strokeColor=none;imageAlign=left;resizeWidth=0;resizeHeight=0;movable=1;allowArrows=1;connectable=1;" parent="1" vertex="1">
          <mxGeometry x="497.5" y="462" width="55" height="40" as="geometry" />
        </mxCell>
        <mxCell id="ngCEQZGh5tzwZteVi0dT-89" value="" style="edgeStyle=orthogonalEdgeStyle;rounded=0;orthogonalLoop=1;jettySize=auto;html=1;endArrow=none;endFill=0;curved=0;strokeWidth=5;targetPerimeterSpacing=4;" parent="1" edge="1">
          <mxGeometry relative="1" as="geometry">
            <mxPoint x="364.7356097560978" y="460" as="sourcePoint" />
            <mxPoint x="364.76" y="429.0000000000002" as="targetPoint" />
          </mxGeometry>
        </mxCell>
        <mxCell id="ngCEQZGh5tzwZteVi0dT-90" value="&lt;font color=&quot;#000000&quot;&gt;&lt;br&gt;&lt;br&gt;&lt;br&gt;&lt;br&gt;&lt;br&gt;&lt;br&gt;&lt;br&gt;&lt;br&gt;&lt;br&gt;&lt;br&gt;&lt;br&gt;&lt;br&gt;&lt;br&gt;&lt;br&gt;&lt;br&gt;&lt;br&gt;&lt;br&gt;&lt;b&gt;&lt;span style=&quot;font-size:16.0pt;font-family:Parisine;&lt;br/&gt;mso-fareast-font-family:Aptos;mso-fareast-theme-font:minor-latin;mso-bidi-font-family:&lt;br/&gt;&amp;quot;Times New Roman&amp;quot;;mso-bidi-theme-font:minor-bidi;mso-ansi-language:FR-CH;&lt;br/&gt;mso-fareast-language:EN-US;mso-bidi-language:AR-SA&quot;&gt;2022&lt;/span&gt;&lt;/b&gt;&lt;br&gt;&lt;br&gt;&lt;/font&gt;&lt;div&gt;&lt;font color=&quot;#000000&quot;&gt;&lt;br&gt;&lt;/font&gt;&lt;/div&gt;" style="rounded=1;whiteSpace=wrap;html=1;spacingBottom=217;fillColor=#FFD966;fontColor=#ffffff;strokeColor=none;imageAlign=left;resizeWidth=0;resizeHeight=0;movable=1;allowArrows=1;connectable=1;" parent="1" vertex="1">
          <mxGeometry x="337.5" y="462" width="55" height="40" as="geometry" />
        </mxCell>
        <mxCell id="ngCEQZGh5tzwZteVi0dT-91" value="" style="edgeStyle=orthogonalEdgeStyle;rounded=0;orthogonalLoop=1;jettySize=auto;html=1;endArrow=none;endFill=0;curved=0;strokeWidth=5;targetPerimeterSpacing=4;" parent="1" edge="1">
          <mxGeometry relative="1" as="geometry">
            <mxPoint x="204.7356097560978" y="460" as="sourcePoint" />
            <mxPoint x="204.76" y="429.0000000000002" as="targetPoint" />
          </mxGeometry>
        </mxCell>
        <mxCell id="ngCEQZGh5tzwZteVi0dT-92" value="&lt;br&gt;&lt;br&gt;&lt;br&gt;&lt;br&gt;&lt;br&gt;&lt;br&gt;&lt;br&gt;&lt;br&gt;&lt;br&gt;&lt;br&gt;&lt;br&gt;&lt;br&gt;&lt;br&gt;&lt;br&gt;&lt;br&gt;&lt;br&gt;&lt;br&gt;&lt;b&gt;&lt;span style=&quot;font-size:16.0pt;font-family:Parisine;&lt;br/&gt;mso-fareast-font-family:Aptos;mso-fareast-theme-font:minor-latin;mso-bidi-font-family:&lt;br/&gt;&amp;quot;Times New Roman&amp;quot;;mso-bidi-theme-font:minor-bidi;mso-ansi-language:FR-CH;&lt;br/&gt;mso-fareast-language:EN-US;mso-bidi-language:AR-SA&quot;&gt;2021&lt;/span&gt;&lt;/b&gt;&lt;br&gt;&lt;br&gt;&lt;div&gt;&lt;br&gt;&lt;/div&gt;" style="rounded=1;whiteSpace=wrap;html=1;spacingBottom=217;fillColor=#4B92DB;fontColor=#ffffff;strokeColor=none;imageAlign=left;resizeWidth=0;resizeHeight=0;movable=1;allowArrows=1;connectable=1;" parent="1" vertex="1">
          <mxGeometry x="177.5" y="462" width="55" height="40" as="geometry" />
        </mxCell>
        <mxCell id="ngCEQZGh5tzwZteVi0dT-96" value="" style="endArrow=none;dashed=1;html=1;rounded=0;exitX=0.591;exitY=-0.5;exitDx=0;exitDy=0;exitPerimeter=0;" parent="1" edge="1">
          <mxGeometry width="50" height="50" relative="1" as="geometry">
            <mxPoint x="368.0050000000001" y="442" as="sourcePoint" />
            <mxPoint x="524" y="442" as="targetPoint" />
            <Array as="points" />
          </mxGeometry>
        </mxCell>
        <mxCell id="ngCEQZGh5tzwZteVi0dT-110" value="&lt;div&gt;&lt;font color=&quot;#6e6e6e&quot;&gt;&lt;b style=&quot;font-size: 12px;&quot;&gt;&lt;span style=&quot;font-family: Parisine;&quot;&gt;Extraction des&lt;/span&gt;&lt;/b&gt;&lt;/font&gt;&lt;/div&gt;&lt;font color=&quot;#6e6e6e&quot;&gt;&lt;b style=&quot;font-size: 12px;&quot;&gt;&lt;span style=&quot;font-family: Parisine;&quot;&gt;concepts médicaux&lt;/span&gt;&lt;/b&gt;&lt;/font&gt;" style="edgeLabel;html=1;align=center;verticalAlign=middle;resizable=0;points=[];" parent="ngCEQZGh5tzwZteVi0dT-96" vertex="1" connectable="0">
          <mxGeometry x="-0.0148" relative="1" as="geometry">
            <mxPoint x="-1" as="offset" />
          </mxGeometry>
        </mxCell>
        <mxCell id="EcFgb9CEFjlDsxJ9yPgB-1" value="&lt;font style=&quot;font-size: 14px;&quot;&gt;&lt;br&gt;&lt;font style=&quot;font-size: 14px;&quot;&gt;&lt;br&gt;&lt;br&gt;&lt;br&gt;&lt;br&gt;&lt;br&gt;&lt;br&gt;&lt;br&gt;&lt;br&gt;&lt;br&gt;&lt;br&gt;&lt;br&gt;&lt;br&gt;&lt;br&gt;&lt;br&gt;&lt;br&gt;&lt;br&gt;&lt;br&gt;&lt;br&gt;&lt;/font&gt;&lt;/font&gt;&lt;p style=&quot;font-size: 14px;&quot; class=&quot;MsoNormal&quot;&gt;&lt;font style=&quot;font-size: 14px;&quot;&gt;&lt;i&gt;&lt;b&gt;&lt;span style=&quot;font-family: Parisine;&quot;&gt;TF-IDF -- BM25 -- BERT&lt;/span&gt;&lt;/b&gt;&lt;font style=&quot;font-size: 14px;&quot;&gt;&lt;b&gt;&lt;span style=&quot;font-family: Parisine;&quot;&gt;&lt;br&gt;&lt;/span&gt;&lt;/b&gt;&lt;/font&gt;&lt;/i&gt;&lt;/font&gt;&lt;/p&gt;&lt;font style=&quot;font-size: 14px;&quot;&gt;&lt;br&gt;&lt;br&gt;&lt;br&gt;&lt;br&gt;&lt;/font&gt;" style="text;html=1;align=center;verticalAlign=middle;whiteSpace=wrap;rounded=0;rotation=-30;fontColor=#004D99;" vertex="1" parent="1">
          <mxGeometry x="274.18" y="218" width="267.82" height="30" as="geometry" />
        </mxCell>
        <mxCell id="EcFgb9CEFjlDsxJ9yPgB-2" value="&lt;font style=&quot;font-size: 14px;&quot;&gt;&lt;br&gt;&lt;font style=&quot;font-size: 14px;&quot;&gt;&lt;br&gt;&lt;br&gt;&lt;br&gt;&lt;br&gt;&lt;br&gt;&lt;br&gt;&lt;br&gt;&lt;br&gt;&lt;br&gt;&lt;br&gt;&lt;br&gt;&lt;br&gt;&lt;br&gt;&lt;br&gt;&lt;br&gt;&lt;br&gt;&lt;br&gt;&lt;br&gt;&lt;/font&gt;&lt;/font&gt;&lt;p style=&quot;font-size: 14px;&quot; class=&quot;MsoNormal&quot;&gt;&lt;font style=&quot;font-size: 14px;&quot;&gt;&lt;i&gt;&lt;font style=&quot;font-size: 14px;&quot;&gt;&lt;b&gt;&lt;span style=&quot;font-family: Parisine;&quot;&gt;KeyBERT -- Keyphrase-Vectorizers&lt;br&gt;&lt;/span&gt;&lt;/b&gt;&lt;/font&gt;&lt;/i&gt;&lt;/font&gt;&lt;/p&gt;&lt;font style=&quot;font-size: 14px;&quot;&gt;&lt;br&gt;&lt;br&gt;&lt;br&gt;&lt;br&gt;&lt;/font&gt;" style="text;html=1;align=center;verticalAlign=middle;whiteSpace=wrap;rounded=0;rotation=-30;fontColor=#004D99;" vertex="1" parent="1">
          <mxGeometry x="454" y="207" width="267.82" height="30" as="geometry" />
        </mxCell>
        <mxCell id="EcFgb9CEFjlDsxJ9yPgB-3" value="&lt;font style=&quot;font-size: 14px;&quot;&gt;&lt;br&gt;&lt;font style=&quot;font-size: 14px;&quot;&gt;&lt;br&gt;&lt;br&gt;&lt;br&gt;&lt;br&gt;&lt;br&gt;&lt;br&gt;&lt;br&gt;&lt;br&gt;&lt;br&gt;&lt;br&gt;&lt;br&gt;&lt;br&gt;&lt;br&gt;&lt;br&gt;&lt;br&gt;&lt;br&gt;&lt;br&gt;&lt;br&gt;&lt;/font&gt;&lt;/font&gt;&lt;p style=&quot;font-size: 14px;&quot; class=&quot;MsoNormal&quot;&gt;&lt;font style=&quot;font-size: 14px;&quot;&gt;&lt;i&gt;&lt;font style=&quot;font-size: 14px;&quot;&gt;&lt;b&gt;&lt;span style=&quot;font-family: Parisine;&quot;&gt;Ariane -- KeyBERT -- Keyphrase-Vectorizers&lt;br&gt;&lt;/span&gt;&lt;/b&gt;&lt;/font&gt;&lt;/i&gt;&lt;/font&gt;&lt;/p&gt;&lt;font style=&quot;font-size: 14px;&quot;&gt;&lt;br&gt;&lt;br&gt;&lt;br&gt;&lt;br&gt;&lt;/font&gt;" style="text;html=1;align=center;verticalAlign=middle;whiteSpace=wrap;rounded=0;rotation=-30;fontColor=#004D99;" vertex="1" parent="1">
          <mxGeometry x="644" y="190" width="280" height="30" as="geometry" />
        </mxCell>
        <mxCell id="EcFgb9CEFjlDsxJ9yPgB-4" value="&lt;font style=&quot;font-size: 14px;&quot;&gt;&lt;br&gt;&lt;font style=&quot;font-size: 14px;&quot;&gt;&lt;br&gt;&lt;br&gt;&lt;br&gt;&lt;br&gt;&lt;br&gt;&lt;br&gt;&lt;br&gt;&lt;br&gt;&lt;br&gt;&lt;br&gt;&lt;br&gt;&lt;br&gt;&lt;br&gt;&lt;br&gt;&lt;br&gt;&lt;br&gt;&lt;br&gt;&lt;br&gt;&lt;/font&gt;&lt;/font&gt;&lt;p style=&quot;font-size: 14px;&quot; class=&quot;MsoNormal&quot;&gt;&lt;font style=&quot;font-size: 14px;&quot;&gt;&lt;i&gt;&lt;font style=&quot;font-size: 14px;&quot;&gt;&lt;b&gt;&lt;span style=&quot;font-family: Parisine;&quot;&gt;OCR -- OBVIE -- TextPair&lt;br&gt;&lt;/span&gt;&lt;/b&gt;&lt;/font&gt;&lt;/i&gt;&lt;/font&gt;&lt;/p&gt;" style="text;html=1;align=center;verticalAlign=middle;whiteSpace=wrap;rounded=0;rotation=-30;fontColor=#004D99;" vertex="1" parent="1">
          <mxGeometry x="139.55" y="167" width="267.82" height="30" as="geometry" />
        </mxCell>
      </root>
    </mxGraphModel>
  </diagram>
</mxfile>
